# xmcd CD database file
#
# Track frame offsets:
#	150
#	9684
#	39257
#	66730
#	68877
#	89351
#	106553
#	126113
#	154559
#	164516
#	177648
#
# Disc length: 2589 seconds
#
# Revision: 0
# Processed by: cddbd v1.5.2PL0 Copyright (c) Steve Scherf et al.
# Submitted via: CDex 1.70beta2
#
DISCID=900a1b0b
DTITLE=Gratitude Trio - Gratitude Trio
DYEAR=2012
DGENRE=Jazz
TTITLE0=Gratitude (intro)
TTITLE1=Gratitude
TTITLE2=Chan's way
TTITLE3=Joy (intro)
TTITLE4=Joy
TTITLE5=La nuit
TTITLE6=Underneath 
TTITLE7=Ifebo 
TTITLE8=Gifle
TTITLE9=Transe
TTITLE10=Da Mo crosses the river
EXTD=YEAR: 2012
EXTT0=
EXTT1=
EXTT2=
EXTT3=
EXTT4=
EXTT5=
EXTT6=
EXTT7=
EXTT8=
EXTT9=
EXTT10=
PLAYORDER=
